<mxfile host="app.diagrams.net" modified="2023-10-13T13:16:40.427Z" agent="Mozilla/5.0 (Windows NT 10.0; Win64; x64) AppleWebKit/537.36 (KHTML, like Gecko) Chrome/117.0.0.0 Safari/537.36 Edg/117.0.2045.60" etag="_R1clOD3Ab1olIRBqmwX" version="22.0.4" type="github">
  <diagram name="第 1 页" id="5HKKA12K4KXDigwtHkgY">
    <mxGraphModel dx="1022" dy="686" grid="1" gridSize="10" guides="1" tooltips="1" connect="1" arrows="1" fold="1" page="1" pageScale="1" pageWidth="827" pageHeight="1169" math="0" shadow="0">
      <root>
        <mxCell id="0" />
        <mxCell id="1" parent="0" />
        <mxCell id="vV9EhALcMcafSD5R_yIb-1" value="&lt;font style=&quot;font-size: 12px;&quot;&gt;16&lt;/font&gt;" style="rounded=1;whiteSpace=wrap;html=1;strokeColor=none;fontFamily=Times New Roman;" parent="1" vertex="1">
          <mxGeometry x="305" y="320" width="90" height="40" as="geometry" />
        </mxCell>
        <mxCell id="53fJsI2zExvIf3YaaM0B-7" value="&lt;font style=&quot;font-size: 12px;&quot;&gt;0&lt;/font&gt;" style="rounded=1;whiteSpace=wrap;html=1;strokeColor=none;fontFamily=Times New Roman;" parent="1" vertex="1">
          <mxGeometry x="70" y="320" width="90" height="40" as="geometry" />
        </mxCell>
        <mxCell id="53fJsI2zExvIf3YaaM0B-8" value="&lt;font style=&quot;font-size: 12px;&quot;&gt;8&lt;/font&gt;" style="rounded=1;whiteSpace=wrap;html=1;strokeColor=none;fontSize=15;fontFamily=Times New Roman;" parent="1" vertex="1">
          <mxGeometry x="180" y="320" width="90" height="40" as="geometry" />
        </mxCell>
        <mxCell id="53fJsI2zExvIf3YaaM0B-9" value="&lt;font style=&quot;font-size: 12px;&quot;&gt;31&lt;/font&gt;" style="rounded=1;whiteSpace=wrap;html=1;strokeColor=none;fontSize=15;fontFamily=Times New Roman;" parent="1" vertex="1">
          <mxGeometry x="550" y="320" width="90" height="40" as="geometry" />
        </mxCell>
        <mxCell id="53fJsI2zExvIf3YaaM0B-4" value="Packet Length" style="rounded=0;whiteSpace=wrap;html=1;fontSize=12;fontFamily=Times New Roman;" parent="1" vertex="1">
          <mxGeometry x="350" y="360" width="240" height="30" as="geometry" />
        </mxCell>
        <mxCell id="53fJsI2zExvIf3YaaM0B-5" value="&lt;font style=&quot;font-size: 12px;&quot;&gt;Authentictor&lt;/font&gt;" style="rounded=0;whiteSpace=wrap;html=1;fontFamily=Times New Roman;" parent="1" vertex="1">
          <mxGeometry x="110" y="390" width="480" height="30" as="geometry" />
        </mxCell>
        <mxCell id="53fJsI2zExvIf3YaaM0B-6" value="&lt;font style=&quot;font-size: 12px;&quot;&gt;Avps....&lt;/font&gt;" style="rounded=0;whiteSpace=wrap;html=1;fontFamily=Times New Roman;" parent="1" vertex="1">
          <mxGeometry x="110" y="420" width="480" height="50" as="geometry" />
        </mxCell>
        <mxCell id="53fJsI2zExvIf3YaaM0B-13" value="&lt;font style=&quot;font-size: 12px;&quot;&gt;Packet Identifier&lt;/font&gt;" style="rounded=0;whiteSpace=wrap;html=1;fontFamily=Times New Roman;" parent="1" vertex="1">
          <mxGeometry x="230" y="360" width="120" height="30" as="geometry" />
        </mxCell>
        <mxCell id="53fJsI2zExvIf3YaaM0B-14" value="&lt;font style=&quot;font-size: 12px;&quot;&gt;Code&lt;/font&gt;" style="rounded=0;whiteSpace=wrap;html=1;fontFamily=Times New Roman;" parent="1" vertex="1">
          <mxGeometry x="110" y="360" width="120" height="30" as="geometry" />
        </mxCell>
      </root>
    </mxGraphModel>
  </diagram>
</mxfile>
